<?xml version="1.0" encoding="UTF-8" standalone="no"?>
<!-- Created with Inkscape (http://www.inkscape.org/) -->

<svg
   width="100mm"
   height="100mm"
   viewBox="0 0 100 100"
   version="1.1"
   id="svg5"
   inkscape:version="1.2.1 (9c6d41e410, 2022-07-14)"
   sodipodi:docname="logo.svg"
   inkscape:export-filename="cyberDanSinFondo.svg"
   inkscape:export-xdpi="96"
   inkscape:export-ydpi="96"
   xmlns:inkscape="http://www.inkscape.org/namespaces/inkscape"
   xmlns:sodipodi="http://sodipodi.sourceforge.net/DTD/sodipodi-0.dtd"
   xmlns="http://www.w3.org/2000/svg"
   xmlns:svg="http://www.w3.org/2000/svg">
  <sodipodi:namedview
     id="namedview7"
     pagecolor="#ffffff"
     bordercolor="#000000"
     borderopacity="0.25"
     inkscape:showpageshadow="2"
     inkscape:pageopacity="0.0"
     inkscape:pagecheckerboard="0"
     inkscape:deskcolor="#d1d1d1"
     inkscape:document-units="mm"
     showgrid="false"
     inkscape:zoom="0.84410376"
     inkscape:cx="72.265997"
     inkscape:cy="159.93294"
     inkscape:window-width="1600"
     inkscape:window-height="849"
     inkscape:window-x="0"
     inkscape:window-y="27"
     inkscape:window-maximized="1"
     inkscape:current-layer="layer3" />
  <defs
     id="defs2">
    <rect
       x="-0.43348435"
       y="212.96555"
       width="377.53296"
       height="73.976723"
       id="rect423" />
  </defs>
  <g
     inkscape:groupmode="layer"
     id="layer2"
     inkscape:label="Layer 2">
    <path
       style="display:inline;fill:#004455;stroke-width:0.162686"
       d="m 47.028808,52.430752 c -0.09011,-1.081793 -0.175732,-1.413046 -0.380646,-1.472696 -0.145413,-0.0423 -0.813454,-0.298351 -1.484539,-0.568935 -0.671079,-0.27059 -1.337565,-0.528728 -1.481077,-0.573645 -0.156973,-0.04913 -0.649528,0.24174 -1.236325,0.730076 l -0.975401,0.811739 -2.818297,-2.821753 -2.81829,-2.821752 0.702529,-0.910605 c 0.38639,-0.500837 0.759831,-0.946028 0.829872,-0.989316 0.07004,-0.04329 -0.125159,-0.625227 -0.433785,-1.293194 -0.30862,-0.667974 -0.6045,-1.431364 -0.657515,-1.696432 -0.09002,-0.450086 -0.156991,-0.488386 -1.013381,-0.579524 -0.504349,-0.05368 -1.154921,-0.134425 -1.445722,-0.179458 l -0.528734,-0.08188 V 36.02459 32.065802 l 1.395436,-0.141679 1.395431,-0.141677 0.566746,-1.464181 c 0.311707,-0.805298 0.601591,-1.573993 0.644184,-1.70821 0.04329,-0.13647 -0.280981,-0.674272 -0.735745,-1.22015 l -0.813196,-0.97612 2.82621,-2.831915 2.826211,-2.831915 1.032277,0.82141 1.032277,0.82141 0.731134,-0.369661 c 0.402124,-0.203312 1.144277,-0.49914 1.649228,-0.657393 0.855376,-0.268077 0.924716,-0.327758 1.014999,-0.873569 0.05331,-0.322209 0.09772,-0.854381 0.0987,-1.182604 0.0037,-1.141565 -0.06985,-1.111441 2.703524,-1.111441 h 2.504241 v 2.19627 2.19627 h 2.180809 2.180809 l 0.406226,-0.693167 c 0.60308,-1.029082 1.497003,-1.475113 2.791206,-1.392704 1.237566,0.0788 1.99206,0.573035 2.510864,1.644752 0.639105,1.320214 0.277968,2.905437 -0.85957,3.773077 -0.453314,0.34576 -0.82395,0.466248 -1.634348,0.531298 -0.930207,0.07467 -1.132484,0.03467 -1.798588,-0.355697 -0.457126,-0.267896 -0.854473,-0.657855 -1.016475,-0.997573 L 56.654115,24.54289 h -2.24748 -2.247481 v 0.959187 0.959188 l -1.34217,0.109053 c -2.300833,0.186947 -4.17344,0.889397 -5.662222,2.124002 -4.03698,3.347753 -4.655358,9.084405 -1.420161,13.174702 1.718384,2.172576 4.043431,3.337857 7.190774,3.603903 l 1.233779,0.10429 v 0.95225 0.952251 h 2.240619 2.240612 l 0.313065,-0.581325 c 0.173857,-0.32283 0.626734,-0.765143 1.018492,-0.994726 0.969854,-0.568376 2.486957,-0.498218 3.342825,0.15458 1.149701,0.876928 1.546968,2.47394 0.945094,3.799312 -0.567767,1.250251 -1.983993,1.905349 -3.503033,1.620378 -0.659783,-0.123776 -1.61469,-0.888033 -1.971369,-1.577773 l -0.237675,-0.459616 -2.194318,0.0025 -2.194312,0.0025 v 2.189731 2.189731 H 49.652115 47.145076 L 47.028808,52.431264 Z M 64.7897,47.250767 c -1.198805,-0.441397 -2.055915,-1.58319 -2.055915,-2.738762 0,-0.525291 -0.04722,-0.562749 -1.748882,-1.387825 L 59.236022,42.27622 53.948704,42.23121 C 49.037033,42.1894 48.602511,42.16226 47.832652,41.849518 46.557067,41.331329 45.584366,40.58221 44.954023,39.63256 c -2.469421,-3.720342 -0.554535,-8.48036 3.875741,-9.6343 0.754696,-0.196574 1.966093,-0.249384 5.720568,-0.249384 h 4.763122 l 1.710162,-0.850522 c 1.655106,-0.823137 1.710169,-0.867831 1.710169,-1.388062 0,-0.784505 0.359064,-1.518932 1.03109,-2.108981 2.279608,-2.001517 5.680189,0.121652 4.915636,3.069094 -0.497756,1.918914 -2.590902,2.802114 -4.382837,1.849334 l -0.762186,-0.405258 -1.661673,0.852647 -1.661673,0.852645 -5.531345,0.08134 -5.531352,0.08134 -0.946458,0.464742 c -1.607576,0.789369 -2.539892,2.463789 -2.335014,4.193639 0.212662,1.795625 1.605251,3.327854 3.368177,3.705936 0.49095,0.105286 2.827815,0.176735 5.780733,0.176735 h 4.956649 l 1.781095,0.893253 1.781101,0.893253 0.762062,-0.405193 c 1.366575,-0.726615 2.975848,-0.40424 3.857689,0.772786 0.493944,0.659273 0.624827,1.079444 0.624827,2.005833 0,1.957079 -2.147194,3.446076 -3.990606,2.767336 z M 64.442355,38.76571 c -0.65361,-0.340802 -1.043948,-0.709152 -1.322685,-1.248173 l -0.231557,-0.447773 h -6.910002 -6.910008 v -1.057462 -1.057464 h 6.910008 6.910002 l 0.248042,-0.47965 c 0.566427,-1.095354 1.973183,-1.673549 3.414084,-1.403235 0.656475,0.123157 1.612741,0.888069 1.967231,1.573582 0.300934,0.581941 0.304513,2.146025 0.0062,2.71701 -0.308152,0.589853 -1.050262,1.274447 -1.611308,1.486426 -0.666535,0.25183 -1.907588,0.21 -2.470024,-0.08326 z"
       id="path240" />
  </g>
  <g
     inkscape:groupmode="layer"
     id="layer3"
     inkscape:label="Layer 3">
    <g
       aria-label="CYBER DAN"
       transform="matrix(0.26458333,0,0,0.26458333,0,1.0583333)"
       id="text421"
       style="font-weight:bold;font-size:40px;font-family:'Droid Sans';-inkscape-font-specification:'Droid Sans, Bold';text-align:center;text-anchor:middle;white-space:pre;shape-inside:url(#rect423);display:inline;fill:#004455"
       inkscape:label="text421">
      <path
         d="m 82.924228,226.01651 q -1.970051,0 -3.497394,0.77474 -1.505207,0.7526 -2.545571,2.1914 -1.018228,1.41667 -1.549478,3.47526 -0.53125,2.03645 -0.53125,4.58203 0,2.58984 0.464844,4.60416 0.486979,2.01432 1.460936,3.40885 0.996093,1.3724 2.523436,2.10286 1.549478,0.70834 3.674477,0.70834 1.97005,0 3.940101,-0.44271 1.992186,-0.44271 4.316403,-1.26172 v 5.75521 q -1.062499,0.4427 -2.102863,0.7526 -1.040364,0.30989 -2.124998,0.50911 -1.084635,0.19922 -2.235676,0.28776 -1.128905,0.11068 -2.434894,0.11068 -3.740883,0 -6.485673,-1.19531 -2.744789,-1.19531 -4.537757,-3.36458 -1.792967,-2.16927 -2.656248,-5.22396 -0.863281,-3.05468 -0.863281,-6.79556 0,-3.67448 0.996093,-6.72917 0.996093,-3.07682 2.921873,-5.29036 1.92578,-2.21354 4.759112,-3.43098 2.833331,-1.23959 6.507808,-1.23959 2.412758,0 4.825517,0.61979 2.434894,0.59766 4.648434,1.66016 l -2.21354,5.57812 q -1.815103,-0.86328 -3.652341,-1.50521 -1.837238,-0.64192 -3.60807,-0.64192 z"
         style="font-size:45.3333px"
         id="path646" />
      <path
         d="m 107.2289,234.09593 5.84374,-13.32551 h 7.39323 l -9.82812,19.76691 v 12.59504 h -6.8177 v -12.37369 l -9.828123,-19.98826 h 7.437493 z"
         style="font-size:45.3333px"
         id="path648" />
      <path
         d="m 124.53878,220.77042 h 9.47395 q 3.05469,0 5.35677,0.4427 2.30208,0.42058 3.85156,1.39453 1.54948,0.95183 2.32422,2.52344 0.79687,1.54948 0.79687,3.82942 0,1.3724 -0.33203,2.56771 -0.33203,1.19531 -0.97396,2.10286 -0.64192,0.90756 -1.57161,1.52735 -0.90755,0.59765 -2.10286,0.79687 v 0.22136 q 1.21744,0.26562 2.25781,0.77473 1.0625,0.48698 1.83724,1.3724 0.79687,0.86328 1.23958,2.1914 0.46484,1.32813 0.46484,3.23177 0,2.21354 -0.77474,3.96224 -0.77474,1.72656 -2.23567,2.94401 -1.4388,1.19531 -3.51953,1.83724 -2.05859,0.64192 -4.67057,0.64192 h -11.42187 z m 6.86198,12.81639 h 3.5638 q 1.28385,0 2.14713,-0.22135 0.86328,-0.24349 1.39453,-0.70833 0.53125,-0.46485 0.7526,-1.15104 0.24349,-0.70834 0.24349,-1.63802 0,-1.85938 -1.17317,-2.65625 -1.15104,-0.81901 -3.67448,-0.81901 h -3.2539 z m 0,5.44531 v 8.43359 h 4.02864 q 1.35026,0 2.25781,-0.3099 0.92969,-0.30989 1.48307,-0.88541 0.57552,-0.57552 0.81901,-1.39453 0.24349,-0.81901 0.24349,-1.8151 0,-0.90756 -0.24349,-1.63802 -0.24349,-0.75261 -0.84114,-1.28386 -0.57552,-0.53125 -1.52735,-0.81901 -0.95182,-0.28776 -2.36848,-0.28776 z"
         style="font-size:45.3333px"
         id="path650" />
      <path
         d="m 172.28484,253.13237 h -18.63801 v -32.36195 h 18.63801 v 5.62239 h -11.77603 v 7.10546 h 10.95702 v 5.62239 h -10.95702 v 8.34505 h 11.77603 z"
         style="font-size:45.3333px"
         id="path652" />
      <path
         d="m 185.89811,235.13629 h 1.85938 q 2.85546,0 4.09504,-1.1289 1.23959,-1.15104 1.23959,-3.36458 0,-2.30209 -1.32813,-3.27604 -1.32812,-0.97396 -4.11718,-0.97396 h -1.7487 z m 0,5.57812 v 12.41796 h -6.86197 v -32.36195 h 8.85416 q 6.22005,0 9.18619,2.41275 2.96614,2.39063 2.96614,7.28255 0,1.66016 -0.4427,3.01042 -0.44271,1.35026 -1.19532,2.41276 -0.73046,1.04036 -1.70442,1.83723 -0.95182,0.77474 -2.01432,1.30599 2.45703,3.9401 4.40494,7.03906 0.84115,1.32812 1.61589,2.58984 0.79687,1.26172 1.41666,2.25781 0.61979,0.9961 1.01823,1.59375 l 0.3763,0.61979 h -7.61458 l -7.01692,-12.41796 z"
         style="font-size:45.3333px"
         id="path654" />
      <path
         d="m 244.40197,236.6415 q 0,4.09505 -1.1289,7.194 -1.10677,3.07682 -3.23177,5.15755 -2.10286,2.05859 -5.17969,3.09896 -3.05468,1.04036 -6.97265,1.04036 h -8.52213 v -32.36195 h 9.47396 q 3.56379,0 6.41926,1.01822 2.8776,1.01823 4.91406,3.03255 2.03646,1.99219 3.12109,4.95833 1.10677,2.96615 1.10677,6.86198 z m -6.95051,0.17708 q 0,-2.70052 -0.55339,-4.64843 -0.53125,-1.97005 -1.57161,-3.25391 -1.01823,-1.28385 -2.52344,-1.90364 -1.48307,-0.61979 -3.40885,-0.61979 h -3.16536 v 21.0729 h 2.52343 q 4.33854,0 6.50781,-2.65625 2.19141,-2.65625 2.19141,-7.99088 z"
         style="font-size:45.3333px"
         id="path656" />
      <path
         d="m 269.12723,253.13237 -2.21354,-7.70312 h -11.15625 l -2.23567,7.70312 h -6.92838 L 257.1077,220.6376 h 8.38932 l 10.55859,32.49477 z m -3.80729,-13.45832 -2.08073,-7.08333 q -0.13281,-0.39844 -0.39844,-1.30599 -0.26562,-0.90755 -0.57552,-1.99218 -0.28776,-1.10677 -0.55338,-2.21354 -0.26563,-1.10677 -0.3763,-1.88151 -0.0885,0.48698 -0.24349,1.15104 -0.13282,0.66406 -0.33203,1.41666 -0.17709,0.73047 -0.37631,1.48307 -0.19921,0.75261 -0.3763,1.41667 -0.17708,0.66406 -0.33203,1.17318 -0.13281,0.50911 -0.19922,0.7526 l -2.05859,7.08333 z"
         style="font-size:45.3333px"
         id="path658" />
      <path
         d="m 307.46574,253.13237 h -8.69921 l -12.72786,-24.48175 h -0.19921 q 0.13281,1.70442 0.22135,3.38672 0.0885,1.4388 0.13281,3.03255 0.0664,1.57161 0.0664,2.83333 v 15.22915 h -6.13151 v -32.36195 h 8.65494 l 12.70572,24.23826 h 0.13282 q -0.0664,-1.68229 -0.15495,-3.32031 -0.0221,-0.70833 -0.0664,-1.4388 -0.0221,-0.7526 -0.0443,-1.48307 -0.0221,-0.75261 -0.0443,-1.4388 0,-0.6862 0,-1.23959 v -15.31769 h 6.15364 z"
         style="font-size:45.3333px"
         id="path660" />
    </g>
    <g
       aria-label="Copias Internet Llamadas"
       id="text490"
       style="font-size:5.29167px;font-family:monospace;-inkscape-font-specification:'monospace, Normal';text-align:center;text-anchor:middle;stroke-width:0.264583">
      <path
         d="m 13.784893,75.706281 q -0.198954,0.105937 -0.408244,0.157613 -0.209289,0.05426 -0.444417,0.05426 -0.741558,0 -1.152385,-0.524516 -0.408244,-0.524516 -0.408244,-1.475363 0,-0.945679 0.410827,-1.472779 0.413412,-0.529684 1.149802,-0.529684 0.235128,0 0.444417,0.05426 0.20929,0.05168 0.408244,0.157613 v 0.534851 q -0.191203,-0.157613 -0.410828,-0.240295 -0.219625,-0.08268 -0.441833,-0.08268 -0.509013,0 -0.762228,0.392741 -0.253215,0.392742 -0.253215,1.185975 0,0.79065 0.253215,1.183391 0.253215,0.392741 0.762228,0.392741 0.227376,0 0.444417,-0.08268 0.219625,-0.08268 0.408244,-0.240295 z"
         id="path663" />
      <path
         d="m 15.78994,73.282655 q -0.361735,0 -0.54777,0.281637 -0.186036,0.281636 -0.186036,0.834574 0,0.550355 0.186036,0.834575 0.186035,0.281637 0.54777,0.281637 0.364319,0 0.550354,-0.281637 0.186036,-0.28422 0.186036,-0.834575 0,-0.552938 -0.186036,-0.834574 -0.186035,-0.281637 -0.550354,-0.281637 z m 0,-0.403077 q 0.602031,0 0.919841,0.390158 0.320394,0.390157 0.320394,1.12913 0,0.741558 -0.31781,1.131715 -0.31781,0.387573 -0.922425,0.387573 -0.602031,0 -0.919841,-0.387573 -0.31781,-0.390157 -0.31781,-1.131715 0,-0.738973 0.31781,-1.12913 0.31781,-0.390158 0.919841,-0.390158 z"
         id="path665" />
      <path
         d="m 18.353093,75.478905 v 1.465027 h -0.478008 v -3.99459 h 0.478008 v 0.369486 q 0.118856,-0.214457 0.315226,-0.325561 0.198955,-0.113689 0.457337,-0.113689 0.524516,0 0.821656,0.405661 0.299723,0.40566 0.299723,1.123963 0,0.705383 -0.299723,1.10846 -0.299724,0.400492 -0.821656,0.400492 -0.26355,0 -0.462505,-0.111104 -0.19637,-0.113688 -0.310058,-0.328145 z m 1.395264,-1.080039 q 0,-0.552938 -0.1757,-0.834574 -0.173116,-0.281637 -0.516764,-0.281637 -0.346233,0 -0.524517,0.28422 -0.178283,0.281637 -0.178283,0.831991 0,0.547771 0.178283,0.831991 0.178284,0.284221 0.524517,0.284221 0.343648,0 0.516764,-0.281637 0.1757,-0.281636 0.1757,-0.834575 z"
         id="path667" />
      <path
         d="m 21.231472,72.949342 h 1.21698 v 2.524395 h 0.943096 v 0.369487 h -2.361615 v -0.369487 h 0.943096 v -2.154909 h -0.741557 z m 0.741557,-1.126547 h 0.475423 v 0.602031 h -0.475423 z"
         id="path669" />
      <path
         d="m 25.569711,74.388531 h -0.157613 q -0.415996,0 -0.627869,0.147278 -0.20929,0.144694 -0.20929,0.434082 0,0.260966 0.157613,0.405661 0.157613,0.144694 0.436666,0.144694 0.392741,0 0.617534,-0.271302 0.224793,-0.273885 0.227376,-0.754476 v -0.105937 z m 0.922425,-0.19637 v 1.651063 h -0.478008 v -0.428915 q -0.152445,0.258382 -0.384989,0.382406 -0.229961,0.121439 -0.56069,0.121439 -0.441834,0 -0.705384,-0.248047 -0.26355,-0.25063 -0.26355,-0.66921 0,-0.483175 0.322978,-0.733806 0.325562,-0.25063 0.953431,-0.25063 h 0.638204 v -0.07493 q -0.0026,-0.346233 -0.1757,-0.501262 -0.173116,-0.157613 -0.552938,-0.157613 -0.242879,0 -0.490926,0.06976 -0.248047,0.06976 -0.483175,0.204122 v -0.475423 q 0.26355,-0.100769 0.503845,-0.149862 0.24288,-0.05168 0.470256,-0.05168 0.359152,0 0.612366,0.105937 0.255799,0.105937 0.413412,0.31781 0.09819,0.129192 0.139526,0.320394 0.04134,0.18862 0.04134,0.568442 z"
         id="path671" />
      <path
         d="m 29.455781,73.050111 v 0.465088 q -0.204122,-0.118856 -0.410828,-0.178284 -0.206706,-0.05943 -0.421163,-0.05943 -0.322978,0 -0.483175,0.105937 -0.157613,0.103353 -0.157613,0.31781 0,0.193787 0.118855,0.289388 0.118856,0.0956 0.591696,0.186036 l 0.191203,0.03617 q 0.353984,0.06718 0.534851,0.268718 0.183452,0.201538 0.183452,0.524516 0,0.428915 -0.304891,0.671794 -0.304892,0.240295 -0.847494,0.240295 -0.214458,0 -0.449586,-0.04651 -0.235128,-0.04393 -0.509013,-0.134359 v -0.49092 q 0.266134,0.136943 0.509013,0.206706 0.24288,0.06718 0.459921,0.06718 0.315226,0 0.488342,-0.126608 0.173117,-0.129191 0.173117,-0.359151 0,-0.330729 -0.633037,-0.457337 l -0.02067,-0.0052 -0.178283,-0.03617 q -0.410828,-0.0801 -0.599447,-0.268718 -0.188619,-0.191202 -0.188619,-0.519348 0,-0.415996 0.281636,-0.640788 0.281637,-0.227377 0.803569,-0.227377 0.232544,0 0.447002,0.04393 0.214457,0.04134 0.421163,0.126608 z"
         id="path673" />
      <path
         d="m 33.832777,71.985576 h 2.14199 v 0.43925 H 35.16603 v 2.979148 h 0.808737 v 0.43925 h -2.14199 v -0.43925 h 0.808737 v -2.979148 h -0.808737 z"
         id="path675" />
      <path
         d="m 39.214881,74.05005 v 1.793174 H 38.736874 V 74.05005 q 0,-0.390157 -0.136943,-0.573608 -0.136943,-0.183452 -0.428915,-0.183452 -0.333313,0 -0.51418,0.237712 -0.178284,0.235128 -0.178284,0.676962 v 1.63556 h -0.475424 v -2.893882 h 0.475424 v 0.434082 q 0.126607,-0.248047 0.343648,-0.374654 0.217041,-0.129192 0.514181,-0.129192 0.441834,0 0.658875,0.291972 0.219625,0.289389 0.219625,0.8785 z"
         id="path677" />
      <path
         d="m 41.271604,72.127686 v 0.821656 h 1.080038 v 0.369486 h -1.080038 v 1.570965 q 0,0.320394 0.12144,0.447001 0.12144,0.126608 0.423747,0.126608 h 0.534851 v 0.379822 h -0.58136 q -0.534851,0 -0.754476,-0.214458 -0.219625,-0.214457 -0.219625,-0.738973 v -1.570965 h -0.772563 v -0.369486 h 0.772563 v -0.821656 z"
         id="path679" />
      <path
         d="m 45.744202,74.277427 v 0.232544 h -2.059307 v 0.0155 q 0,0.472839 0.245463,0.731222 0.248047,0.258382 0.697632,0.258382 0.227377,0 0.475424,-0.07235 0.248047,-0.07235 0.529684,-0.219625 v 0.47284 q -0.271302,0.111104 -0.524516,0.165364 -0.250631,0.05684 -0.485759,0.05684 -0.674378,0 -1.0542,-0.403076 -0.379822,-0.40566 -0.379822,-1.116212 0,-0.692464 0.37207,-1.105876 0.372071,-0.413412 0.992189,-0.413412 0.552938,0 0.870748,0.374655 0.320394,0.374654 0.320394,1.023194 z M 45.268779,74.1379 q -0.01034,-0.418579 -0.198955,-0.63562 -0.186035,-0.219625 -0.537435,-0.219625 -0.343649,0 -0.565857,0.227376 -0.222209,0.227377 -0.26355,0.630453 z"
         id="path681" />
      <path
         d="m 49.041162,73.546205 q -0.152445,-0.118856 -0.310058,-0.173116 -0.157614,-0.05426 -0.346233,-0.05426 -0.444417,0 -0.679545,0.279053 -0.235128,0.279053 -0.235128,0.806153 v 1.43919 h -0.478007 v -2.893882 h 0.478007 V 73.5152 q 0.118856,-0.307475 0.364319,-0.470256 0.248047,-0.165365 0.586528,-0.165365 0.1757,0 0.328145,0.04393 0.152446,0.04393 0.291972,0.136943 z"
         id="path683" />
      <path
         d="m 51.958297,74.05005 v 1.793174 H 51.480289 V 74.05005 q 0,-0.390157 -0.136942,-0.573608 -0.136943,-0.183452 -0.428915,-0.183452 -0.333313,0 -0.514181,0.237712 -0.178283,0.235128 -0.178283,0.676962 v 1.63556 h -0.475424 v -2.893882 h 0.475424 v 0.434082 q 0.126607,-0.248047 0.343648,-0.374654 0.217041,-0.129192 0.514181,-0.129192 0.441834,0 0.658875,0.291972 0.219625,0.289389 0.219625,0.8785 z"
         id="path685" />
      <path
         d="m 55.301762,74.277427 v 0.232544 h -2.059307 v 0.0155 q 0,0.472839 0.245463,0.731222 0.248047,0.258382 0.697632,0.258382 0.227377,0 0.475424,-0.07235 0.248047,-0.07235 0.529684,-0.219625 v 0.47284 q -0.271302,0.111104 -0.524516,0.165364 -0.250631,0.05684 -0.485759,0.05684 -0.674378,0 -1.0542,-0.403076 -0.379822,-0.40566 -0.379822,-1.116212 0,-0.692464 0.37207,-1.105876 0.372071,-0.413412 0.992189,-0.413412 0.552938,0 0.870748,0.374655 0.320394,0.374654 0.320394,1.023194 z M 54.826339,74.1379 q -0.01034,-0.418579 -0.198955,-0.63562 -0.186035,-0.219625 -0.537435,-0.219625 -0.343649,0 -0.565857,0.227376 -0.222209,0.227377 -0.26355,0.630453 z"
         id="path687" />
      <path
         d="m 57.200874,72.127686 v 0.821656 h 1.080038 v 0.369486 h -1.080038 v 1.570965 q 0,0.320394 0.12144,0.447001 0.121439,0.126608 0.423747,0.126608 h 0.534851 v 0.379822 h -0.58136 q -0.534852,0 -0.754477,-0.214458 -0.219625,-0.214457 -0.219625,-0.738973 v -1.570965 h -0.772563 v -0.369486 h 0.772563 v -0.821656 z"
         id="path689" />
      <path
         d="m 62.541636,71.985576 h 0.524517 v 3.418398 h 1.862936 v 0.43925 h -2.387453 z"
         id="path691" />
      <path
         d="m 66.823029,74.794191 q 0,0.320394 0.116273,0.483175 0.118855,0.162781 0.348816,0.162781 h 0.555522 v 0.403077 h -0.602031 q -0.426331,0 -0.661459,-0.273886 -0.232544,-0.273885 -0.232544,-0.775147 v -2.627748 h -0.762228 v -0.37207 h 1.237651 z"
         id="path693" />
      <path
         d="m 70.171666,74.388531 h -0.157613 q -0.415996,0 -0.627869,0.147278 -0.20929,0.144694 -0.20929,0.434082 0,0.260966 0.157613,0.405661 0.157614,0.144694 0.436667,0.144694 0.392741,0 0.617533,-0.271302 0.224793,-0.273885 0.227377,-0.754476 v -0.105937 z m 0.922425,-0.19637 v 1.651063 h -0.478007 v -0.428915 q -0.152446,0.258382 -0.38499,0.382406 -0.22996,0.121439 -0.560689,0.121439 -0.441834,0 -0.705384,-0.248047 -0.26355,-0.25063 -0.26355,-0.66921 0,-0.483175 0.322978,-0.733806 0.325561,-0.25063 0.95343,-0.25063 h 0.638205 v -0.07493 q -0.0026,-0.346233 -0.1757,-0.501262 -0.173116,-0.157613 -0.552938,-0.157613 -0.24288,0 -0.490927,0.06976 -0.248047,0.06976 -0.483175,0.204122 v -0.475423 q 0.26355,-0.100769 0.503846,-0.149862 0.242879,-0.05168 0.470256,-0.05168 0.359151,0 0.612366,0.105937 0.255798,0.105937 0.413411,0.31781 0.09819,0.129192 0.139527,0.320394 0.04134,0.18862 0.04134,0.568442 z"
         id="path695" />
      <path
         d="m 73.290343,73.243897 q 0.08785,-0.186035 0.222208,-0.273885 0.136943,-0.09043 0.328146,-0.09043 0.348816,0 0.490926,0.271302 0.144694,0.268717 0.144694,1.015442 v 1.676902 h -0.434082 v -1.656231 q 0,-0.612366 -0.06976,-0.759644 -0.06718,-0.149862 -0.248047,-0.149862 -0.206706,0 -0.284221,0.160197 -0.07493,0.157613 -0.07493,0.749309 v 1.656231 h -0.434083 v -1.656231 q 0,-0.620118 -0.07493,-0.764812 -0.07235,-0.144694 -0.26355,-0.144694 -0.188619,0 -0.26355,0.160197 -0.07235,0.157613 -0.07235,0.749309 v 1.656231 h -0.431498 v -2.893882 h 0.431498 v 0.248047 q 0.08527,-0.15503 0.211874,-0.235128 0.129191,-0.08268 0.291972,-0.08268 0.19637,0 0.325562,0.09043 0.131775,0.09043 0.204122,0.273885 z"
         id="path697" />
      <path
         d="m 76.543374,74.388531 h -0.157613 q -0.415996,0 -0.627869,0.147278 -0.20929,0.144694 -0.20929,0.434082 0,0.260966 0.157613,0.405661 0.157614,0.144694 0.436667,0.144694 0.392741,0 0.617533,-0.271302 0.224793,-0.273885 0.227377,-0.754476 v -0.105937 z m 0.922425,-0.19637 v 1.651063 h -0.478007 v -0.428915 q -0.152446,0.258382 -0.38499,0.382406 -0.22996,0.121439 -0.56069,0.121439 -0.441833,0 -0.705383,-0.248047 -0.26355,-0.25063 -0.26355,-0.66921 0,-0.483175 0.322978,-0.733806 0.325561,-0.25063 0.95343,-0.25063 h 0.638205 v -0.07493 q -0.0026,-0.346233 -0.1757,-0.501262 -0.173116,-0.157613 -0.552938,-0.157613 -0.24288,0 -0.490927,0.06976 -0.248047,0.06976 -0.483175,0.204122 v -0.475423 q 0.26355,-0.100769 0.503846,-0.149862 0.242879,-0.05168 0.470256,-0.05168 0.359151,0 0.612366,0.105937 0.255798,0.105937 0.413411,0.31781 0.09819,0.129192 0.139527,0.320394 0.04134,0.18862 0.04134,0.568442 z"
         id="path699" />
      <path
         d="m 80.132303,73.318828 v -1.496033 h 0.475423 v 4.020429 h -0.475423 v -0.364319 q -0.118856,0.214457 -0.317811,0.328145 -0.19637,0.111104 -0.454753,0.111104 -0.524516,0 -0.826823,-0.40566 -0.299723,-0.408244 -0.299723,-1.123963 0,-0.705384 0.302307,-1.105876 0.302307,-0.403077 0.824239,-0.403077 0.260967,0 0.459921,0.113689 0.198954,0.111104 0.312643,0.325561 z m -1.397849,1.080038 q 0,0.552939 0.1757,0.834575 0.1757,0.281637 0.519349,0.281637 0.343648,0 0.521932,-0.284221 0.180868,-0.28422 0.180868,-0.831991 0,-0.550354 -0.180868,-0.831991 -0.178284,-0.28422 -0.521932,-0.28422 -0.343649,0 -0.519349,0.281637 -0.1757,0.281636 -0.1757,0.834574 z"
         id="path701" />
      <path
         d="m 82.915086,74.388531 h -0.157613 q -0.415996,0 -0.627869,0.147278 -0.20929,0.144694 -0.20929,0.434082 0,0.260966 0.157613,0.405661 0.157613,0.144694 0.436666,0.144694 0.392741,0 0.617534,-0.271302 0.224793,-0.273885 0.227376,-0.754476 v -0.105937 z m 0.922425,-0.19637 v 1.651063 h -0.478008 v -0.428915 q -0.152445,0.258382 -0.384989,0.382406 -0.22996,0.121439 -0.56069,0.121439 -0.441834,0 -0.705384,-0.248047 -0.26355,-0.25063 -0.26355,-0.66921 0,-0.483175 0.322978,-0.733806 0.325562,-0.25063 0.953431,-0.25063 h 0.638204 v -0.07493 q -0.0026,-0.346233 -0.1757,-0.501262 -0.173116,-0.157613 -0.552938,-0.157613 -0.242879,0 -0.490926,0.06976 -0.248047,0.06976 -0.483175,0.204122 v -0.475423 q 0.26355,-0.100769 0.503845,-0.149862 0.24288,-0.05168 0.470256,-0.05168 0.359152,0 0.612366,0.105937 0.255799,0.105937 0.413412,0.31781 0.09819,0.129192 0.139527,0.320394 0.04134,0.18862 0.04134,0.568442 z"
         id="path703" />
      <path
         d="m 86.801154,73.050111 v 0.465088 q -0.204122,-0.118856 -0.410828,-0.178284 -0.206706,-0.05943 -0.421163,-0.05943 -0.322978,0 -0.483175,0.105937 -0.157613,0.103353 -0.157613,0.31781 0,0.193787 0.118856,0.289388 0.118856,0.0956 0.591695,0.186036 l 0.191203,0.03617 q 0.353984,0.06718 0.534851,0.268718 0.183452,0.201538 0.183452,0.524516 0,0.428915 -0.304891,0.671794 -0.304891,0.240295 -0.847494,0.240295 -0.214458,0 -0.449585,-0.04651 -0.235128,-0.04393 -0.509014,-0.134359 v -0.49092 q 0.266134,0.136943 0.509014,0.206706 0.242879,0.06718 0.45992,0.06718 0.315226,0 0.488343,-0.126608 0.173116,-0.129191 0.173116,-0.359151 0,-0.330729 -0.633037,-0.457337 l -0.02067,-0.0052 -0.178284,-0.03617 q -0.410828,-0.0801 -0.599447,-0.268718 -0.188619,-0.191202 -0.188619,-0.519348 0,-0.415996 0.281636,-0.640788 0.281637,-0.227377 0.803569,-0.227377 0.232544,0 0.447002,0.04393 0.214457,0.04134 0.421163,0.126608 z"
         id="path705" />
    </g>
  </g>
</svg>
