<?xml version="1.0" encoding="UTF-8" standalone="no"?>
<!-- Created with Inkscape (http://www.inkscape.org/) -->

<svg
   width="100mm"
   height="100mm"
   viewBox="0 0 100 100"
   version="1.1"
   id="svg5"
   inkscape:version="1.2.1 (9c6d41e410, 2022-07-14)"
   sodipodi:docname="logo.svg"
   inkscape:export-filename="bitmap.png"
   inkscape:export-xdpi="96"
   inkscape:export-ydpi="96"
   xmlns:inkscape="http://www.inkscape.org/namespaces/inkscape"
   xmlns:sodipodi="http://sodipodi.sourceforge.net/DTD/sodipodi-0.dtd"
   xmlns="http://www.w3.org/2000/svg"
   xmlns:svg="http://www.w3.org/2000/svg">
  <sodipodi:namedview
     id="namedview7"
     pagecolor="#ffffff"
     bordercolor="#000000"
     borderopacity="0.25"
     inkscape:showpageshadow="2"
     inkscape:pageopacity="0.0"
     inkscape:pagecheckerboard="0"
     inkscape:deskcolor="#d1d1d1"
     inkscape:document-units="mm"
     showgrid="false"
     inkscape:zoom="0.84410376"
     inkscape:cx="72.265997"
     inkscape:cy="159.93294"
     inkscape:window-width="1600"
     inkscape:window-height="849"
     inkscape:window-x="0"
     inkscape:window-y="27"
     inkscape:window-maximized="1"
     inkscape:current-layer="layer3" />
  <defs
     id="defs2">
    <rect
       x="-0.43348434"
       y="212.96554"
       width="377.53297"
       height="73.976724"
       id="rect423" />
    <rect
       x="9.294931"
       y="209.54257"
       width="365.6615"
       height="53.216512"
       id="rect318" />
  </defs>
  <g
     inkscape:label="Layer 1"
     inkscape:groupmode="layer"
     id="layer1">
    <rect
       style="display:inline;fill:#d5f6ff;stroke-width:0.264583"
       id="rect111"
       width="100"
       height="100"
       x="0.034409851"
       y="0.069045663" />
  </g>
  <g
     inkscape:groupmode="layer"
     id="layer2"
     inkscape:label="Layer 2">
    <path
       style="display:inline;fill:#004455;stroke-width:0.162686"
       d="m 47.028808,52.430752 c -0.09011,-1.081793 -0.175732,-1.413046 -0.380646,-1.472696 -0.145413,-0.0423 -0.813454,-0.298351 -1.484539,-0.568935 -0.671079,-0.27059 -1.337565,-0.528728 -1.481077,-0.573645 -0.156973,-0.04913 -0.649528,0.24174 -1.236325,0.730076 l -0.975401,0.811739 -2.818297,-2.821753 -2.81829,-2.821752 0.702529,-0.910605 c 0.38639,-0.500837 0.759831,-0.946028 0.829872,-0.989316 0.07004,-0.04329 -0.125159,-0.625227 -0.433785,-1.293194 -0.30862,-0.667974 -0.6045,-1.431364 -0.657515,-1.696432 -0.09002,-0.450086 -0.156991,-0.488386 -1.013381,-0.579524 -0.504349,-0.05368 -1.154921,-0.134425 -1.445722,-0.179458 l -0.528734,-0.08188 V 36.02459 32.065802 l 1.395436,-0.141679 1.395431,-0.141677 0.566746,-1.464181 c 0.311707,-0.805298 0.601591,-1.573993 0.644184,-1.70821 0.04329,-0.13647 -0.280981,-0.674272 -0.735745,-1.22015 l -0.813196,-0.97612 2.82621,-2.831915 2.826211,-2.831915 1.032277,0.82141 1.032277,0.82141 0.731134,-0.369661 c 0.402124,-0.203312 1.144277,-0.49914 1.649228,-0.657393 0.855376,-0.268077 0.924716,-0.327758 1.014999,-0.873569 0.05331,-0.322209 0.09772,-0.854381 0.0987,-1.182604 0.0037,-1.141565 -0.06985,-1.111441 2.703524,-1.111441 h 2.504241 v 2.19627 2.19627 h 2.180809 2.180809 l 0.406226,-0.693167 c 0.60308,-1.029082 1.497003,-1.475113 2.791206,-1.392704 1.237566,0.0788 1.99206,0.573035 2.510864,1.644752 0.639105,1.320214 0.277968,2.905437 -0.85957,3.773077 -0.453314,0.34576 -0.82395,0.466248 -1.634348,0.531298 -0.930207,0.07467 -1.132484,0.03467 -1.798588,-0.355697 -0.457126,-0.267896 -0.854473,-0.657855 -1.016475,-0.997573 L 56.654115,24.54289 h -2.24748 -2.247481 v 0.959187 0.959188 l -1.34217,0.109053 c -2.300833,0.186947 -4.17344,0.889397 -5.662222,2.124002 -4.03698,3.347753 -4.655358,9.084405 -1.420161,13.174702 1.718384,2.172576 4.043431,3.337857 7.190774,3.603903 l 1.233779,0.10429 v 0.95225 0.952251 h 2.240619 2.240612 l 0.313065,-0.581325 c 0.173857,-0.32283 0.626734,-0.765143 1.018492,-0.994726 0.969854,-0.568376 2.486957,-0.498218 3.342825,0.15458 1.149701,0.876928 1.546968,2.47394 0.945094,3.799312 -0.567767,1.250251 -1.983993,1.905349 -3.503033,1.620378 -0.659783,-0.123776 -1.61469,-0.888033 -1.971369,-1.577773 l -0.237675,-0.459616 -2.194318,0.0025 -2.194312,0.0025 v 2.189731 2.189731 H 49.652115 47.145076 L 47.028808,52.431264 Z M 64.7897,47.250767 c -1.198805,-0.441397 -2.055915,-1.58319 -2.055915,-2.738762 0,-0.525291 -0.04722,-0.562749 -1.748882,-1.387825 L 59.236022,42.27622 53.948704,42.23121 C 49.037033,42.1894 48.602511,42.16226 47.832652,41.849518 46.557067,41.331329 45.584366,40.58221 44.954023,39.63256 c -2.469421,-3.720342 -0.554535,-8.48036 3.875741,-9.6343 0.754696,-0.196574 1.966093,-0.249384 5.720568,-0.249384 h 4.763122 l 1.710162,-0.850522 c 1.655106,-0.823137 1.710169,-0.867831 1.710169,-1.388062 0,-0.784505 0.359064,-1.518932 1.03109,-2.108981 2.279608,-2.001517 5.680189,0.121652 4.915636,3.069094 -0.497756,1.918914 -2.590902,2.802114 -4.382837,1.849334 l -0.762186,-0.405258 -1.661673,0.852647 -1.661673,0.852645 -5.531345,0.08134 -5.531352,0.08134 -0.946458,0.464742 c -1.607576,0.789369 -2.539892,2.463789 -2.335014,4.193639 0.212662,1.795625 1.605251,3.327854 3.368177,3.705936 0.49095,0.105286 2.827815,0.176735 5.780733,0.176735 h 4.956649 l 1.781095,0.893253 1.781101,0.893253 0.762062,-0.405193 c 1.366575,-0.726615 2.975848,-0.40424 3.857689,0.772786 0.493944,0.659273 0.624827,1.079444 0.624827,2.005833 0,1.957079 -2.147194,3.446076 -3.990606,2.767336 z M 64.442355,38.76571 c -0.65361,-0.340802 -1.043948,-0.709152 -1.322685,-1.248173 l -0.231557,-0.447773 h -6.910002 -6.910008 v -1.057462 -1.057464 h 6.910008 6.910002 l 0.248042,-0.47965 c 0.566427,-1.095354 1.973183,-1.673549 3.414084,-1.403235 0.656475,0.123157 1.612741,0.888069 1.967231,1.573582 0.300934,0.581941 0.304513,2.146025 0.0062,2.71701 -0.308152,0.589853 -1.050262,1.274447 -1.611308,1.486426 -0.666535,0.25183 -1.907588,0.21 -2.470024,-0.08326 z"
       id="path240" />
  </g>
  <g
     inkscape:groupmode="layer"
     id="layer3"
     inkscape:label="Layer 3">
    <text
       xml:space="preserve"
       transform="matrix(0.26458333,0,0,0.26458333,0,1.0583333)"
       id="text421"
       style="font-style:normal;font-variant:normal;font-weight:bold;font-stretch:normal;font-size:40px;font-family:'Droid Sans';-inkscape-font-specification:'Droid Sans, Bold';font-variant-ligatures:normal;font-variant-caps:normal;font-variant-numeric:normal;font-variant-east-asian:normal;text-align:center;white-space:pre;shape-inside:url(#rect423);display:inline;fill:#004455"
       inkscape:label="text421"><tspan
         x="65.10523"
         y="253.13237"
         id="tspan644"><tspan
           style="font-size:45.3333px"
           id="tspan642">CYBER DAN</tspan></tspan></text>
    <text
       xml:space="preserve"
       style="font-style:normal;font-variant:normal;font-weight:normal;font-stretch:normal;font-size:5.29167px;font-family:monospace;-inkscape-font-specification:'monospace, Normal';font-variant-ligatures:normal;font-variant-caps:normal;font-variant-numeric:normal;font-variant-east-asian:normal;text-align:center;text-anchor:middle;fill:#000000;stroke-width:0.264583"
       x="49.242699"
       y="75.843224"
       id="text490"><tspan
         sodipodi:role="line"
         id="tspan488"
         style="font-style:normal;font-variant:normal;font-weight:normal;font-stretch:normal;font-size:5.29167px;font-family:monospace;-inkscape-font-specification:'monospace, Normal';font-variant-ligatures:normal;font-variant-caps:normal;font-variant-numeric:normal;font-variant-east-asian:normal;fill:#000000;stroke-width:0.264583"
         x="49.242699"
         y="75.843224">Copias Internet Llamadas</tspan></text>
  </g>
</svg>
